<svg xmlns="http://www.w3.org/2000/svg">
    <symbol id="facebook" viewBox="0 0 512 512">
        <path d="M283.122,122.174c0,5.24,0,22.319,0,46.583h83.424l-9.045,74.367h-74.379
                c0,114.688,0,268.375,0,268.375h-98.726c0,0,0-151.653,0-268.375h-51.443v-74.367h51.443c0-29.492,0-50.463,0-56.302
                c0-27.82-2.096-41.02,9.725-62.578C205.948,28.32,239.308-0.174,297.007,0.512c57.713,0.711,82.04,6.263,82.04,6.263
                l-12.501,79.257c0,0-36.853-9.731-54.942-6.263C293.539,83.238,283.122,94.366,283.122,122.174z">
        </path>
    </symbol>
    <symbol id="instagram" viewBox="0 0 20 20">
        <g transform="translate(-340.000000, -7439.000000)">
            <g transform="translate(56.000000, 160.000000)">
                <path d="M289.869652,7279.12273 C288.241769,7279.19618 286.830805,7279.5942 285.691486,7280.72871 C284.548187,7281.86918 284.155147,7283.28558 284.081514,7284.89653 C284.035742,7285.90201 283.768077,7293.49818 284.544207,7295.49028 C285.067597,7296.83422 286.098457,7297.86749 287.454694,7298.39256 C288.087538,7298.63872 288.809936,7298.80547 289.869652,7298.85411 C298.730467,7299.25511 302.015089,7299.03674 303.400182,7295.49028 C303.645956,7294.859 303.815113,7294.1374 303.86188,7293.08031 C304.26686,7284.19677 303.796207,7282.27117 302.251908,7280.72871 C301.027016,7279.50685 299.5862,7278.67508 289.869652,7279.12273 M289.951245,7297.06748 C288.981083,7297.0238 288.454707,7296.86201 288.103459,7296.72603 C287.219865,7296.3826 286.556174,7295.72155 286.214876,7294.84312 C285.623823,7293.32944 285.819846,7286.14023 285.872583,7284.97693 C285.924325,7283.83745 286.155174,7282.79624 286.959165,7281.99226 C287.954203,7280.99968 289.239792,7280.51332 297.993144,7280.90837 C299.135448,7280.95998 300.179243,7281.19026 300.985224,7281.99226 C301.980262,7282.98483 302.473801,7284.28014 302.071806,7292.99991 C302.028024,7293.96767 301.865833,7294.49274 301.729513,7294.84312 C300.829003,7297.15085 298.757333,7297.47145 289.951245,7297.06748 M298.089663,7283.68956 C298.089663,7284.34665 298.623998,7284.88065 299.283709,7284.88065 C299.943419,7284.88065 300.47875,7284.34665 300.47875,7283.68956 C300.47875,7283.03248 299.943419,7282.49847 299.283709,7282.49847 C298.623998,7282.49847 298.089663,7283.03248 298.089663,7283.68956 M288.862673,7288.98792 C288.862673,7291.80286 291.150266,7294.08479 293.972194,7294.08479 C296.794123,7294.08479 299.081716,7291.80286 299.081716,7288.98792 C299.081716,7286.17298 296.794123,7283.89205 293.972194,7283.89205 C291.150266,7283.89205 288.862673,7286.17298 288.862673,7288.98792 M290.655732,7288.98792 C290.655732,7287.16159 292.140329,7285.67967 293.972194,7285.67967 C295.80406,7285.67967 297.288657,7287.16159 297.288657,7288.98792 C297.288657,7290.81525 295.80406,7292.29716 293.972194,7292.29716 C292.140329,7292.29716 290.655732,7290.81525 290.655732,7288.98792">

</path>
            </g>
        </g>
    </symbol>
    <symbol id="linkedin" viewBox="0 0 512 512">
        <path d="M116.504,500.219V170.654H6.975v329.564H116.504
            L116.504,500.219z M61.751,125.674c38.183,0,61.968-25.328,61.968-56.953c-0.722-32.328-23.785-56.941-61.252-56.941
            C24.994,11.781,0.5,36.394,0.5,68.722c0,31.625,23.772,56.953,60.53,56.953H61.751L61.751,125.674z M177.124,500.219
            c0,0,1.437-298.643,0-329.564H286.67v47.794h-0.727c14.404-22.49,40.354-55.533,99.44-55.533
            c72.085,0,126.116,47.103,126.116,148.333v188.971H401.971V323.912c0-44.301-15.848-74.531-55.497-74.531
            c-30.254,0-48.284,20.38-56.202,40.08c-2.897,7.012-3.602,16.861-3.602,26.711v184.047H177.124L177.124,500.219z">
        </path>
    </symbol>
    <symbol id="mail" viewBox="0 0 24 24">
        <path fill-rule="evenodd" clip-rule="evenodd" d="M21.8178 7.68475C22.5632 8.25194 23 9.13431 23 10.071V20C23 21.6569 21.6569 23 20 23H4C2.34315 23 1 21.6569 1 20V10.071C1 9.13431 1.43675 8.25194 2.18224 7.68475C4.36739 6.02221 8.93135 2.55149 10.2 1.6C11.2667 0.8 12.7333 0.8 13.8 1.6C15.0686 2.55148 19.6326 6.02221 21.8178 7.68475ZM3 10.1688L10.1411 15.8065C11.231 16.667 12.769 16.667 13.8589 15.8065L21 10.1688V20C21 20.5523 20.5523 21 20 21H4C3.44772 21 3 20.5523 3 20V10.1688ZM12.6 3.2L19.7792 8.58443L12.6196 14.2367C12.2563 14.5236 11.7437 14.5236 11.3804 14.2367L4.22077 8.58443L11.4 3.2C11.7556 2.93333 12.2444 2.93333 12.6 3.2Z"/>
    </symbol>
    <symbol id="youtube" viewBox="0 -3 20 20">
        <g transform="translate(-300.000000, -7442.000000)">
            <g transform="translate(56.000000, 160.000000)">
                <path d="M251.988432,7291.58588 L251.988432,7285.97425 C253.980638,7286.91168 255.523602,7287.8172 257.348463,7288.79353 C255.843351,7289.62824 253.980638,7290.56468 251.988432,7291.58588 M263.090998,7283.18289 C262.747343,7282.73013 262.161634,7282.37809 261.538073,7282.26141 C259.705243,7281.91336 248.270974,7281.91237 246.439141,7282.26141 C245.939097,7282.35515 245.493839,7282.58153 245.111335,7282.93357 C243.49964,7284.42947 244.004664,7292.45151 244.393145,7293.75096 C244.556505,7294.31342 244.767679,7294.71931 245.033639,7294.98558 C245.376298,7295.33761 245.845463,7295.57995 246.384355,7295.68865 C247.893451,7296.0008 255.668037,7296.17532 261.506198,7295.73552 C262.044094,7295.64178 262.520231,7295.39147 262.895762,7295.02447 C264.385932,7293.53455 264.28433,7285.06174 263.090998,7283.18289" id="youtube-[#168]">
                </path>
            </g>
        </g>
    </symbol>
    <symbol id="phone" viewBox="0 0 24 24">
        <path d="M16.5562 12.9062L16.1007 13.359C16.1007 13.359 15.0181 14.4355 12.0631 11.4972C9.10812 8.55901 10.1907 7.48257 10.1907 7.48257L10.4775 7.19738C11.1841 6.49484 11.2507 5.36691 10.6342 4.54348L9.37326 2.85908C8.61028 1.83992 7.13596 1.70529 6.26145 2.57483L4.69185 4.13552C4.25823 4.56668 3.96765 5.12559 4.00289 5.74561C4.09304 7.33182 4.81071 10.7447 8.81536 14.7266C13.0621 18.9492 17.0468 19.117 18.6763 18.9651C19.1917 18.9171 19.6399 18.6546 20.0011 18.2954L21.4217 16.883C22.3806 15.9295 22.1102 14.2949 20.8833 13.628L18.9728 12.5894C18.1672 12.1515 17.1858 12.2801 16.5562 12.9062Z"/>
    </symbol>
    <symbol id="arrow-left" viewBox="-4.5 0 20 20">
         <g transform="translate(-345.000000, -6679.000000)">
            <g transform="translate(56.000000, 160.000000)">
                <path d="M299.633777,6519.29231 L299.633777,6519.29231 C299.228878,6518.90256 298.573377,6518.90256 298.169513,6519.29231 L289.606572,6527.55587 C288.797809,6528.33636 288.797809,6529.60253 289.606572,6530.38301 L298.231646,6538.70754 C298.632403,6539.09329 299.27962,6539.09828 299.685554,6538.71753 L299.685554,6538.71753 C300.100809,6538.32879 300.104951,6537.68821 299.696945,6537.29347 L291.802968,6529.67648 C291.398069,6529.28574 291.398069,6528.65315 291.802968,6528.26241 L299.633777,6520.70538 C300.038676,6520.31563 300.038676,6519.68305 299.633777,6519.29231">
                </path>
            </g>
        </g>
    </symbol>
    <symbol id="arrow-right" viewBox="-4.5 0 20 20">
        <g transform="translate(-305.000000, -6679.000000)">
            <g transform="translate(56.000000, 160.000000)">
                <path d="M249.365851,6538.70769 L249.365851,6538.70769 C249.770764,6539.09744 250.426289,6539.09744 250.830166,6538.70769 L259.393407,6530.44413 C260.202198,6529.66364 260.202198,6528.39747 259.393407,6527.61699 L250.768031,6519.29246 C250.367261,6518.90671 249.720021,6518.90172 249.314072,6519.28247 L249.314072,6519.28247 C248.899839,6519.67121 248.894661,6520.31179 249.302681,6520.70653 L257.196934,6528.32352 C257.601847,6528.71426 257.601847,6529.34685 257.196934,6529.73759 L249.365851,6537.29462 C248.960938,6537.68437 248.960938,6538.31795 249.365851,6538.70769">
                </path>
            </g>
        </g>
    </symbol>
    <symbol id="heart" viewBox="0 0 24 24">
        <path d="M2 9.1371C2 14 6.01943 16.5914 8.96173 18.9109C10 19.7294 11 20.5 12 20.5C13 20.5 14 19.7294 15.0383 18.9109C17.9806 16.5914 22 14 22 9.1371C22 4.27416 16.4998 0.825464 12 5.50063C7.50016 0.825464 2 4.27416 2 9.1371Z"/>
    </symbol>
</svg>