<svg width="100" height="34" viewBox="0 0 100 34" fill="none" xmlns="http://www.w3.org/2000/svg">
<path d="M83.123 17C83.123 18.5773 83.1756 20.067 83.2807 21.469C83.4209 22.836 83.6663 24.0277 84.0168 25.0442C84.4024 26.0606 84.9281 26.8668 85.5941 27.4627C86.2601 28.0585 87.1539 28.3565 88.2755 28.3565C89.3621 28.3565 90.2383 28.0585 90.9043 27.4627C91.6053 26.8668 92.1311 26.0606 92.4816 25.0442C92.8671 23.9926 93.1125 22.7834 93.2177 21.4164C93.3579 20.0494 93.428 18.5773 93.428 17C93.428 15.4227 93.3579 13.9506 93.2177 12.5836C93.1125 11.1816 92.8671 9.97232 92.4816 8.95584C92.1311 7.93937 91.6228 7.1332 90.9569 6.53734C90.2909 5.94147 89.3971 5.64354 88.2755 5.64354C87.1539 5.64354 86.2601 5.94147 85.5941 6.53734C84.9281 7.1332 84.4024 7.95689 84.0168 9.00842C83.6663 10.0249 83.4209 11.2166 83.2807 12.5836C83.1756 13.9506 83.123 15.4227 83.123 17ZM76.551 17C76.551 11.3919 77.585 7.16825 79.653 4.32914C81.721 1.45497 84.5952 0.0178833 88.2755 0.0178833C92.096 0.0178833 95.0052 1.45497 97.0031 4.32914C99.001 7.16825 100 11.3919 100 17C100 22.6081 98.9835 26.8493 96.9506 29.7235C94.9176 32.5626 92.0435 33.9821 88.3281 33.9821C84.5075 33.9821 81.5808 32.5626 79.5478 29.7235C77.5499 26.8493 76.551 22.6081 76.551 17Z" fill="#bebebe"/>
<path d="M65.2471 5.64354C63.7049 5.64354 62.408 5.92395 61.3565 6.48476C60.3049 7.04557 59.4287 7.83422 58.7276 8.85069C58.0617 9.83211 57.571 11.0238 57.2555 12.4259C56.9751 13.7929 56.8349 15.3176 56.8349 17C56.8349 20.8906 57.4483 23.7648 58.6751 25.6225C59.9019 27.4452 61.707 28.3565 64.0904 28.3565C64.476 28.3565 64.8966 28.3389 65.3523 28.3039C65.8079 28.2688 66.2285 28.2163 66.6141 28.1462V16.2639H73.081V32.51C72.3098 32.7904 71.1006 33.1059 69.4532 33.4564C67.8409 33.8069 65.878 33.9821 63.5647 33.9821C61.5317 33.9821 59.6915 33.6316 58.0442 32.9306C56.4318 32.1945 55.0473 31.1255 53.8906 29.7235C52.734 28.2864 51.8402 26.5163 51.2092 24.4133C50.5783 22.2752 50.2629 19.8041 50.2629 17C50.2629 14.231 50.6309 11.795 51.367 9.69191C52.103 7.55381 53.102 5.76622 54.3638 4.32914C55.6257 2.89205 57.1153 1.823 58.8328 1.12198C60.5503 0.385916 62.3905 0.0178833 64.3533 0.0178833C65.6151 0.0178833 66.7368 0.123035 67.7182 0.33334C68.7347 0.508594 69.6109 0.718899 70.347 0.964256C71.0831 1.20961 71.6789 1.47249 72.1346 1.7529C72.6253 2.03331 72.9933 2.24361 73.2387 2.38381L71.5563 7.53628C70.7851 7.04557 69.8388 6.60744 68.7171 6.22188C67.5955 5.83632 66.4388 5.64354 65.2471 5.64354Z" fill="#bebebe"/>
<path d="M30.5468 17C30.5468 18.5773 30.5994 20.067 30.7045 21.469C30.8447 22.836 31.0901 24.0277 31.4406 25.0442C31.8261 26.0606 32.3519 26.8668 33.0179 27.4627C33.6838 28.0585 34.5776 28.3565 35.6993 28.3565C36.7858 28.3565 37.6621 28.0585 38.3281 27.4627C39.0291 26.8668 39.5549 26.0606 39.9054 25.0442C40.2909 23.9926 40.5363 22.7834 40.6414 21.4164C40.7816 20.0494 40.8517 18.5773 40.8517 17C40.8517 15.4227 40.7816 13.9506 40.6414 12.5836C40.5363 11.1816 40.2909 9.97232 39.9054 8.95584C39.5549 7.93937 39.0466 7.1332 38.3807 6.53734C37.7147 5.94147 36.8209 5.64354 35.6993 5.64354C34.5776 5.64354 33.6838 5.94147 33.0179 6.53734C32.3519 7.1332 31.8261 7.95689 31.4406 9.00842C31.0901 10.0249 30.8447 11.2166 30.7045 12.5836C30.5994 13.9506 30.5468 15.4227 30.5468 17ZM23.9748 17C23.9748 11.3919 25.0088 7.16825 27.0768 4.32914C29.1448 1.45497 32.0189 0.0178833 35.6993 0.0178833C39.5198 0.0178833 42.429 1.45497 44.4269 4.32914C46.4248 7.16825 47.4238 11.3919 47.4238 17C47.4238 22.6081 46.4073 26.8493 44.3743 29.7235C42.3414 32.5626 39.4672 33.9821 35.7518 33.9821C31.9313 33.9821 29.0046 32.5626 26.9716 29.7235C24.9737 26.8493 23.9748 22.6081 23.9748 17Z" fill="#bebebe"/>
<path d="M20.4522 33.2986H0V0.753937H6.51945V27.9359H20.4522V33.2986Z" fill="#bebebe"/>
</svg>
